<svg xmlns="http://www.w3.org/2000/svg" aria-hidden="true" data-prefix="fal" data-icon="euro-sign" class="svg-inline--fa fa-euro-sign fa-w-10 fa-3x" width="64" height="64"><path d="M53.404 58.876a1.716 1.716 0 0 0-2.077-1.268c-1.43.347-3.67.758-6.261.758-11.532 0-20.248-6.66-22.977-17.223h22.178a1.714 1.714 0 0 0 1.683-1.39l.22-1.143a1.714 1.714 0 0 0-1.683-2.039H21.12c-.264-2.993-.264-6.237.088-9.142h25.523a1.714 1.714 0 0 0 1.683-1.39l.22-1.143a1.714 1.714 0 0 0-1.683-2.039H22.177c2.993-10.036 11.445-17.223 22.8-17.223 2.105 0 4.066.314 5.365.584A1.713 1.713 0 0 0 52.35 4.96l.56-2.21A1.713 1.713 0 0 0 51.589.647 34.125 34.125 0 0 0 45.066 0C30.54 0 19.096 9.74 15.663 22.857h-3.92c-.947 0-1.714.768-1.714 1.714v1.143c0 .947.767 1.715 1.714 1.715h3.128c-.353 2.552-.264 7.118-.088 9.142h-3.04c-.947 0-1.714.768-1.714 1.715v1.143c0 .946.767 1.714 1.714 1.714h3.744C18.568 54.964 30.012 64 45.066 64c3.216 0 5.942-.49 7.583-.872a1.713 1.713 0 0 0 1.275-2.066z" fill="#FFF"/></svg>
